<mxfile host="app.diagrams.net" modified="2023-06-24T09:12:37.303Z" agent="Mozilla/5.0 (Macintosh; Intel Mac OS X 10_15_7) AppleWebKit/537.36 (KHTML, like Gecko) Chrome/114.0.0.0 Safari/537.36" etag="hqSwJC8rtn0n69_JRA1V" version="21.3.5" type="github">
  <diagram id="R2lEEEUBdFMjLlhIrx00" name="Page-1">
    <mxGraphModel dx="1625" dy="714" grid="1" gridSize="10" guides="1" tooltips="1" connect="1" arrows="1" fold="1" page="1" pageScale="1" pageWidth="850" pageHeight="1100" math="0" shadow="0" extFonts="Permanent Marker^https://fonts.googleapis.com/css?family=Permanent+Marker">
      <root>
        <mxCell id="0" />
        <mxCell id="1" parent="0" />
        <mxCell id="HUpHQ43C0Kg3qeBBqf7o-21" value="ID" style="swimlane;fontStyle=0;childLayout=stackLayout;horizontal=1;startSize=30;horizontalStack=0;resizeParent=1;resizeParentMax=0;resizeLast=0;collapsible=1;marginBottom=0;whiteSpace=wrap;html=1;" vertex="1" parent="1">
          <mxGeometry x="120" y="73" width="170" height="240" as="geometry">
            <mxRectangle x="380" y="500" width="60" height="30" as="alternateBounds" />
          </mxGeometry>
        </mxCell>
        <mxCell id="HUpHQ43C0Kg3qeBBqf7o-125" value="UserID（FK）" style="text;strokeColor=none;fillColor=none;align=left;verticalAlign=middle;spacingLeft=4;spacingRight=4;overflow=hidden;points=[[0,0.5],[1,0.5]];portConstraint=eastwest;rotatable=0;whiteSpace=wrap;html=1;" vertex="1" parent="HUpHQ43C0Kg3qeBBqf7o-21">
          <mxGeometry y="30" width="170" height="30" as="geometry" />
        </mxCell>
        <mxCell id="HUpHQ43C0Kg3qeBBqf7o-23" value="時刻" style="text;strokeColor=none;fillColor=none;align=left;verticalAlign=middle;spacingLeft=4;spacingRight=4;overflow=hidden;points=[[0,0.5],[1,0.5]];portConstraint=eastwest;rotatable=0;whiteSpace=wrap;html=1;" vertex="1" parent="HUpHQ43C0Kg3qeBBqf7o-21">
          <mxGeometry y="60" width="170" height="30" as="geometry" />
        </mxCell>
        <mxCell id="HUpHQ43C0Kg3qeBBqf7o-24" value="gcsuri" style="text;strokeColor=none;fillColor=none;align=left;verticalAlign=middle;spacingLeft=4;spacingRight=4;overflow=hidden;points=[[0,0.5],[1,0.5]];portConstraint=eastwest;rotatable=0;whiteSpace=wrap;html=1;" vertex="1" parent="HUpHQ43C0Kg3qeBBqf7o-21">
          <mxGeometry y="90" width="170" height="30" as="geometry" />
        </mxCell>
        <mxCell id="HUpHQ43C0Kg3qeBBqf7o-25" value="Text" style="text;strokeColor=none;fillColor=none;align=left;verticalAlign=middle;spacingLeft=4;spacingRight=4;overflow=hidden;points=[[0,0.5],[1,0.5]];portConstraint=eastwest;rotatable=0;whiteSpace=wrap;html=1;" vertex="1" parent="HUpHQ43C0Kg3qeBBqf7o-21">
          <mxGeometry y="120" width="170" height="30" as="geometry" />
        </mxCell>
        <mxCell id="HUpHQ43C0Kg3qeBBqf7o-28" value="Feedback frag" style="text;strokeColor=none;fillColor=none;align=left;verticalAlign=middle;spacingLeft=4;spacingRight=4;overflow=hidden;points=[[0,0.5],[1,0.5]];portConstraint=eastwest;rotatable=0;whiteSpace=wrap;html=1;" vertex="1" parent="HUpHQ43C0Kg3qeBBqf7o-21">
          <mxGeometry y="150" width="170" height="30" as="geometry" />
        </mxCell>
        <mxCell id="HUpHQ43C0Kg3qeBBqf7o-58" value="設問ID（FK）" style="text;strokeColor=none;fillColor=none;align=left;verticalAlign=middle;spacingLeft=4;spacingRight=4;overflow=hidden;points=[[0,0.5],[1,0.5]];portConstraint=eastwest;rotatable=0;whiteSpace=wrap;html=1;" vertex="1" parent="HUpHQ43C0Kg3qeBBqf7o-21">
          <mxGeometry y="180" width="170" height="30" as="geometry" />
        </mxCell>
        <mxCell id="HUpHQ43C0Kg3qeBBqf7o-97" value="アンケートID（FK）" style="text;strokeColor=none;fillColor=none;align=left;verticalAlign=middle;spacingLeft=4;spacingRight=4;overflow=hidden;points=[[0,0.5],[1,0.5]];portConstraint=eastwest;rotatable=0;whiteSpace=wrap;html=1;" vertex="1" parent="HUpHQ43C0Kg3qeBBqf7o-21">
          <mxGeometry y="210" width="170" height="30" as="geometry" />
        </mxCell>
        <mxCell id="HUpHQ43C0Kg3qeBBqf7o-30" value="UserID" style="swimlane;fontStyle=0;childLayout=stackLayout;horizontal=1;startSize=30;horizontalStack=0;resizeParent=1;resizeParentMax=0;resizeLast=0;collapsible=1;marginBottom=0;whiteSpace=wrap;html=1;" vertex="1" parent="1">
          <mxGeometry x="120" y="410" width="170" height="180" as="geometry">
            <mxRectangle x="380" y="500" width="60" height="30" as="alternateBounds" />
          </mxGeometry>
        </mxCell>
        <mxCell id="HUpHQ43C0Kg3qeBBqf7o-93" value="User名" style="text;strokeColor=none;fillColor=none;align=left;verticalAlign=middle;spacingLeft=4;spacingRight=4;overflow=hidden;points=[[0,0.5],[1,0.5]];portConstraint=eastwest;rotatable=0;whiteSpace=wrap;html=1;" vertex="1" parent="HUpHQ43C0Kg3qeBBqf7o-30">
          <mxGeometry y="30" width="170" height="30" as="geometry" />
        </mxCell>
        <mxCell id="HUpHQ43C0Kg3qeBBqf7o-32" value="email" style="text;strokeColor=none;fillColor=none;align=left;verticalAlign=middle;spacingLeft=4;spacingRight=4;overflow=hidden;points=[[0,0.5],[1,0.5]];portConstraint=eastwest;rotatable=0;whiteSpace=wrap;html=1;" vertex="1" parent="HUpHQ43C0Kg3qeBBqf7o-30">
          <mxGeometry y="60" width="170" height="30" as="geometry" />
        </mxCell>
        <mxCell id="HUpHQ43C0Kg3qeBBqf7o-33" value="ログインID" style="text;strokeColor=none;fillColor=none;align=left;verticalAlign=middle;spacingLeft=4;spacingRight=4;overflow=hidden;points=[[0,0.5],[1,0.5]];portConstraint=eastwest;rotatable=0;whiteSpace=wrap;html=1;" vertex="1" parent="HUpHQ43C0Kg3qeBBqf7o-30">
          <mxGeometry y="90" width="170" height="30" as="geometry" />
        </mxCell>
        <mxCell id="HUpHQ43C0Kg3qeBBqf7o-34" value="Password" style="text;strokeColor=none;fillColor=none;align=left;verticalAlign=middle;spacingLeft=4;spacingRight=4;overflow=hidden;points=[[0,0.5],[1,0.5]];portConstraint=eastwest;rotatable=0;whiteSpace=wrap;html=1;" vertex="1" parent="HUpHQ43C0Kg3qeBBqf7o-30">
          <mxGeometry y="120" width="170" height="30" as="geometry" />
        </mxCell>
        <mxCell id="HUpHQ43C0Kg3qeBBqf7o-35" value="利用回数" style="text;strokeColor=none;fillColor=none;align=left;verticalAlign=middle;spacingLeft=4;spacingRight=4;overflow=hidden;points=[[0,0.5],[1,0.5]];portConstraint=eastwest;rotatable=0;whiteSpace=wrap;html=1;" vertex="1" parent="HUpHQ43C0Kg3qeBBqf7o-30">
          <mxGeometry y="150" width="170" height="30" as="geometry" />
        </mxCell>
        <mxCell id="HUpHQ43C0Kg3qeBBqf7o-40" value="ID" style="swimlane;fontStyle=0;childLayout=stackLayout;horizontal=1;startSize=30;horizontalStack=0;resizeParent=1;resizeParentMax=0;resizeLast=0;collapsible=1;marginBottom=0;whiteSpace=wrap;html=1;" vertex="1" parent="1">
          <mxGeometry x="380" y="73" width="170" height="180" as="geometry">
            <mxRectangle x="380" y="500" width="60" height="30" as="alternateBounds" />
          </mxGeometry>
        </mxCell>
        <mxCell id="HUpHQ43C0Kg3qeBBqf7o-95" value="請求時刻" style="text;strokeColor=none;fillColor=none;align=left;verticalAlign=middle;spacingLeft=4;spacingRight=4;overflow=hidden;points=[[0,0.5],[1,0.5]];portConstraint=eastwest;rotatable=0;whiteSpace=wrap;html=1;" vertex="1" parent="HUpHQ43C0Kg3qeBBqf7o-40">
          <mxGeometry y="30" width="170" height="30" as="geometry" />
        </mxCell>
        <mxCell id="HUpHQ43C0Kg3qeBBqf7o-43" value="金額" style="text;strokeColor=none;fillColor=none;align=left;verticalAlign=middle;spacingLeft=4;spacingRight=4;overflow=hidden;points=[[0,0.5],[1,0.5]];portConstraint=eastwest;rotatable=0;whiteSpace=wrap;html=1;" vertex="1" parent="HUpHQ43C0Kg3qeBBqf7o-40">
          <mxGeometry y="60" width="170" height="30" as="geometry" />
        </mxCell>
        <mxCell id="HUpHQ43C0Kg3qeBBqf7o-96" value="決済状況" style="text;strokeColor=none;fillColor=none;align=left;verticalAlign=middle;spacingLeft=4;spacingRight=4;overflow=hidden;points=[[0,0.5],[1,0.5]];portConstraint=eastwest;rotatable=0;whiteSpace=wrap;html=1;" vertex="1" parent="HUpHQ43C0Kg3qeBBqf7o-40">
          <mxGeometry y="90" width="170" height="30" as="geometry" />
        </mxCell>
        <mxCell id="HUpHQ43C0Kg3qeBBqf7o-42" value="決済時刻" style="text;strokeColor=none;fillColor=none;align=left;verticalAlign=middle;spacingLeft=4;spacingRight=4;overflow=hidden;points=[[0,0.5],[1,0.5]];portConstraint=eastwest;rotatable=0;whiteSpace=wrap;html=1;" vertex="1" parent="HUpHQ43C0Kg3qeBBqf7o-40">
          <mxGeometry y="120" width="170" height="30" as="geometry" />
        </mxCell>
        <mxCell id="HUpHQ43C0Kg3qeBBqf7o-44" value="支払い方法（カード情報等）" style="text;strokeColor=none;fillColor=none;align=left;verticalAlign=middle;spacingLeft=4;spacingRight=4;overflow=hidden;points=[[0,0.5],[1,0.5]];portConstraint=eastwest;rotatable=0;whiteSpace=wrap;html=1;" vertex="1" parent="HUpHQ43C0Kg3qeBBqf7o-40">
          <mxGeometry y="150" width="170" height="30" as="geometry" />
        </mxCell>
        <mxCell id="HUpHQ43C0Kg3qeBBqf7o-49" value="ID" style="swimlane;fontStyle=0;childLayout=stackLayout;horizontal=1;startSize=30;horizontalStack=0;resizeParent=1;resizeParentMax=0;resizeLast=0;collapsible=1;marginBottom=0;whiteSpace=wrap;html=1;" vertex="1" parent="1">
          <mxGeometry x="780" y="73" width="170" height="180" as="geometry">
            <mxRectangle x="380" y="500" width="60" height="30" as="alternateBounds" />
          </mxGeometry>
        </mxCell>
        <mxCell id="HUpHQ43C0Kg3qeBBqf7o-83" value="採点者ID（FK）" style="text;strokeColor=none;fillColor=none;align=left;verticalAlign=middle;spacingLeft=4;spacingRight=4;overflow=hidden;points=[[0,0.5],[1,0.5]];portConstraint=eastwest;rotatable=0;whiteSpace=wrap;html=1;" vertex="1" parent="HUpHQ43C0Kg3qeBBqf7o-49">
          <mxGeometry y="30" width="170" height="30" as="geometry" />
        </mxCell>
        <mxCell id="HUpHQ43C0Kg3qeBBqf7o-51" value="時刻" style="text;strokeColor=none;fillColor=none;align=left;verticalAlign=middle;spacingLeft=4;spacingRight=4;overflow=hidden;points=[[0,0.5],[1,0.5]];portConstraint=eastwest;rotatable=0;whiteSpace=wrap;html=1;" vertex="1" parent="HUpHQ43C0Kg3qeBBqf7o-49">
          <mxGeometry y="60" width="170" height="30" as="geometry" />
        </mxCell>
        <mxCell id="HUpHQ43C0Kg3qeBBqf7o-55" value="修正Text（文字起こし修正）" style="text;strokeColor=none;fillColor=none;align=left;verticalAlign=middle;spacingLeft=4;spacingRight=4;overflow=hidden;points=[[0,0.5],[1,0.5]];portConstraint=eastwest;rotatable=0;whiteSpace=wrap;html=1;" vertex="1" parent="HUpHQ43C0Kg3qeBBqf7o-49">
          <mxGeometry y="90" width="170" height="30" as="geometry" />
        </mxCell>
        <mxCell id="HUpHQ43C0Kg3qeBBqf7o-67" value="ランク" style="text;strokeColor=none;fillColor=none;align=left;verticalAlign=middle;spacingLeft=4;spacingRight=4;overflow=hidden;points=[[0,0.5],[1,0.5]];portConstraint=eastwest;rotatable=0;whiteSpace=wrap;html=1;" vertex="1" parent="HUpHQ43C0Kg3qeBBqf7o-49">
          <mxGeometry y="120" width="170" height="30" as="geometry" />
        </mxCell>
        <mxCell id="HUpHQ43C0Kg3qeBBqf7o-68" value="Feedback text" style="text;strokeColor=none;fillColor=none;align=left;verticalAlign=middle;spacingLeft=4;spacingRight=4;overflow=hidden;points=[[0,0.5],[1,0.5]];portConstraint=eastwest;rotatable=0;whiteSpace=wrap;html=1;" vertex="1" parent="HUpHQ43C0Kg3qeBBqf7o-49">
          <mxGeometry y="150" width="170" height="30" as="geometry" />
        </mxCell>
        <mxCell id="HUpHQ43C0Kg3qeBBqf7o-59" value="設問ID" style="swimlane;fontStyle=0;childLayout=stackLayout;horizontal=1;startSize=30;horizontalStack=0;resizeParent=1;resizeParentMax=0;resizeLast=0;collapsible=1;marginBottom=0;whiteSpace=wrap;html=1;" vertex="1" parent="1">
          <mxGeometry x="570" y="410" width="170" height="90" as="geometry">
            <mxRectangle x="380" y="500" width="60" height="30" as="alternateBounds" />
          </mxGeometry>
        </mxCell>
        <mxCell id="HUpHQ43C0Kg3qeBBqf7o-61" value="分類" style="text;strokeColor=none;fillColor=none;align=left;verticalAlign=middle;spacingLeft=4;spacingRight=4;overflow=hidden;points=[[0,0.5],[1,0.5]];portConstraint=eastwest;rotatable=0;whiteSpace=wrap;html=1;" vertex="1" parent="HUpHQ43C0Kg3qeBBqf7o-59">
          <mxGeometry y="30" width="170" height="30" as="geometry" />
        </mxCell>
        <mxCell id="HUpHQ43C0Kg3qeBBqf7o-62" value="問題文" style="text;strokeColor=none;fillColor=none;align=left;verticalAlign=middle;spacingLeft=4;spacingRight=4;overflow=hidden;points=[[0,0.5],[1,0.5]];portConstraint=eastwest;rotatable=0;whiteSpace=wrap;html=1;" vertex="1" parent="HUpHQ43C0Kg3qeBBqf7o-59">
          <mxGeometry y="60" width="170" height="30" as="geometry" />
        </mxCell>
        <mxCell id="HUpHQ43C0Kg3qeBBqf7o-78" value="ID" style="swimlane;fontStyle=0;childLayout=stackLayout;horizontal=1;startSize=30;horizontalStack=0;resizeParent=1;resizeParentMax=0;resizeLast=0;collapsible=1;marginBottom=0;whiteSpace=wrap;html=1;" vertex="1" parent="1">
          <mxGeometry x="1060" y="73" width="170" height="150" as="geometry">
            <mxRectangle x="380" y="500" width="60" height="30" as="alternateBounds" />
          </mxGeometry>
        </mxCell>
        <mxCell id="HUpHQ43C0Kg3qeBBqf7o-79" value="ID" style="text;strokeColor=none;fillColor=none;align=left;verticalAlign=middle;spacingLeft=4;spacingRight=4;overflow=hidden;points=[[0,0.5],[1,0.5]];portConstraint=eastwest;rotatable=0;whiteSpace=wrap;html=1;" vertex="1" parent="HUpHQ43C0Kg3qeBBqf7o-78">
          <mxGeometry y="30" width="170" height="30" as="geometry" />
        </mxCell>
        <mxCell id="HUpHQ43C0Kg3qeBBqf7o-80" value="決済状況" style="text;strokeColor=none;fillColor=none;align=left;verticalAlign=middle;spacingLeft=4;spacingRight=4;overflow=hidden;points=[[0,0.5],[1,0.5]];portConstraint=eastwest;rotatable=0;whiteSpace=wrap;html=1;" vertex="1" parent="HUpHQ43C0Kg3qeBBqf7o-78">
          <mxGeometry y="60" width="170" height="30" as="geometry" />
        </mxCell>
        <mxCell id="HUpHQ43C0Kg3qeBBqf7o-81" value="金額" style="text;strokeColor=none;fillColor=none;align=left;verticalAlign=middle;spacingLeft=4;spacingRight=4;overflow=hidden;points=[[0,0.5],[1,0.5]];portConstraint=eastwest;rotatable=0;whiteSpace=wrap;html=1;" vertex="1" parent="HUpHQ43C0Kg3qeBBqf7o-78">
          <mxGeometry y="90" width="170" height="30" as="geometry" />
        </mxCell>
        <mxCell id="HUpHQ43C0Kg3qeBBqf7o-111" value="決済時刻" style="text;strokeColor=none;fillColor=none;align=left;verticalAlign=middle;spacingLeft=4;spacingRight=4;overflow=hidden;points=[[0,0.5],[1,0.5]];portConstraint=eastwest;rotatable=0;whiteSpace=wrap;html=1;" vertex="1" parent="HUpHQ43C0Kg3qeBBqf7o-78">
          <mxGeometry y="120" width="170" height="30" as="geometry" />
        </mxCell>
        <mxCell id="HUpHQ43C0Kg3qeBBqf7o-84" value="採点者ID" style="swimlane;fontStyle=0;childLayout=stackLayout;horizontal=1;startSize=30;horizontalStack=0;resizeParent=1;resizeParentMax=0;resizeLast=0;collapsible=1;marginBottom=0;whiteSpace=wrap;html=1;" vertex="1" parent="1">
          <mxGeometry x="780" y="410" width="170" height="180" as="geometry">
            <mxRectangle x="380" y="500" width="60" height="30" as="alternateBounds" />
          </mxGeometry>
        </mxCell>
        <mxCell id="HUpHQ43C0Kg3qeBBqf7o-86" value="email" style="text;strokeColor=none;fillColor=none;align=left;verticalAlign=middle;spacingLeft=4;spacingRight=4;overflow=hidden;points=[[0,0.5],[1,0.5]];portConstraint=eastwest;rotatable=0;whiteSpace=wrap;html=1;" vertex="1" parent="HUpHQ43C0Kg3qeBBqf7o-84">
          <mxGeometry y="30" width="170" height="30" as="geometry" />
        </mxCell>
        <mxCell id="HUpHQ43C0Kg3qeBBqf7o-87" value="ログインID" style="text;strokeColor=none;fillColor=none;align=left;verticalAlign=middle;spacingLeft=4;spacingRight=4;overflow=hidden;points=[[0,0.5],[1,0.5]];portConstraint=eastwest;rotatable=0;whiteSpace=wrap;html=1;" vertex="1" parent="HUpHQ43C0Kg3qeBBqf7o-84">
          <mxGeometry y="60" width="170" height="30" as="geometry" />
        </mxCell>
        <mxCell id="HUpHQ43C0Kg3qeBBqf7o-88" value="Password" style="text;strokeColor=none;fillColor=none;align=left;verticalAlign=middle;spacingLeft=4;spacingRight=4;overflow=hidden;points=[[0,0.5],[1,0.5]];portConstraint=eastwest;rotatable=0;whiteSpace=wrap;html=1;" vertex="1" parent="HUpHQ43C0Kg3qeBBqf7o-84">
          <mxGeometry y="90" width="170" height="30" as="geometry" />
        </mxCell>
        <mxCell id="HUpHQ43C0Kg3qeBBqf7o-89" value="採点回数" style="text;strokeColor=none;fillColor=none;align=left;verticalAlign=middle;spacingLeft=4;spacingRight=4;overflow=hidden;points=[[0,0.5],[1,0.5]];portConstraint=eastwest;rotatable=0;whiteSpace=wrap;html=1;" vertex="1" parent="HUpHQ43C0Kg3qeBBqf7o-84">
          <mxGeometry y="120" width="170" height="30" as="geometry" />
        </mxCell>
        <mxCell id="HUpHQ43C0Kg3qeBBqf7o-90" value="決済情報（口座等）" style="text;strokeColor=none;fillColor=none;align=left;verticalAlign=middle;spacingLeft=4;spacingRight=4;overflow=hidden;points=[[0,0.5],[1,0.5]];portConstraint=eastwest;rotatable=0;whiteSpace=wrap;html=1;" vertex="1" parent="HUpHQ43C0Kg3qeBBqf7o-84">
          <mxGeometry y="150" width="170" height="30" as="geometry" />
        </mxCell>
        <mxCell id="HUpHQ43C0Kg3qeBBqf7o-98" value="アンケートID" style="swimlane;fontStyle=0;childLayout=stackLayout;horizontal=1;startSize=30;horizontalStack=0;resizeParent=1;resizeParentMax=0;resizeLast=0;collapsible=1;marginBottom=0;whiteSpace=wrap;html=1;" vertex="1" parent="1">
          <mxGeometry x="360" y="410" width="170" height="90" as="geometry">
            <mxRectangle x="380" y="500" width="60" height="30" as="alternateBounds" />
          </mxGeometry>
        </mxCell>
        <mxCell id="HUpHQ43C0Kg3qeBBqf7o-99" value="アンケート項目ID" style="text;strokeColor=none;fillColor=none;align=left;verticalAlign=middle;spacingLeft=4;spacingRight=4;overflow=hidden;points=[[0,0.5],[1,0.5]];portConstraint=eastwest;rotatable=0;whiteSpace=wrap;html=1;" vertex="1" parent="HUpHQ43C0Kg3qeBBqf7o-98">
          <mxGeometry y="30" width="170" height="30" as="geometry" />
        </mxCell>
        <mxCell id="HUpHQ43C0Kg3qeBBqf7o-100" value="回答内容" style="text;strokeColor=none;fillColor=none;align=left;verticalAlign=middle;spacingLeft=4;spacingRight=4;overflow=hidden;points=[[0,0.5],[1,0.5]];portConstraint=eastwest;rotatable=0;whiteSpace=wrap;html=1;" vertex="1" parent="HUpHQ43C0Kg3qeBBqf7o-98">
          <mxGeometry y="60" width="170" height="30" as="geometry" />
        </mxCell>
        <mxCell id="HUpHQ43C0Kg3qeBBqf7o-106" value="アンケート項目ID" style="swimlane;fontStyle=0;childLayout=stackLayout;horizontal=1;startSize=30;horizontalStack=0;resizeParent=1;resizeParentMax=0;resizeLast=0;collapsible=1;marginBottom=0;whiteSpace=wrap;html=1;" vertex="1" parent="1">
          <mxGeometry x="360" y="520" width="170" height="60" as="geometry">
            <mxRectangle x="380" y="500" width="60" height="30" as="alternateBounds" />
          </mxGeometry>
        </mxCell>
        <mxCell id="HUpHQ43C0Kg3qeBBqf7o-108" value="アンケート項目" style="text;strokeColor=none;fillColor=none;align=left;verticalAlign=middle;spacingLeft=4;spacingRight=4;overflow=hidden;points=[[0,0.5],[1,0.5]];portConstraint=eastwest;rotatable=0;whiteSpace=wrap;html=1;" vertex="1" parent="HUpHQ43C0Kg3qeBBqf7o-106">
          <mxGeometry y="30" width="170" height="30" as="geometry" />
        </mxCell>
        <mxCell id="HUpHQ43C0Kg3qeBBqf7o-119" value="" style="endArrow=ERone;html=1;rounded=0;curved=1;entryX=0.5;entryY=0;entryDx=0;entryDy=0;startArrow=ERone;startFill=0;endFill=0;exitX=0.5;exitY=0.967;exitDx=0;exitDy=0;exitPerimeter=0;" edge="1" parent="1" source="HUpHQ43C0Kg3qeBBqf7o-100" target="HUpHQ43C0Kg3qeBBqf7o-106">
          <mxGeometry width="50" height="50" relative="1" as="geometry">
            <mxPoint x="630" y="155" as="sourcePoint" />
            <mxPoint x="660" y="155" as="targetPoint" />
          </mxGeometry>
        </mxCell>
        <mxCell id="HUpHQ43C0Kg3qeBBqf7o-120" value="" style="endArrow=ERone;html=1;rounded=0;curved=1;startArrow=ERone;startFill=0;endFill=0;exitX=0.5;exitY=0;exitDx=0;exitDy=0;exitPerimeter=0;" edge="1" parent="1" source="HUpHQ43C0Kg3qeBBqf7o-84" target="HUpHQ43C0Kg3qeBBqf7o-68">
          <mxGeometry width="50" height="50" relative="1" as="geometry">
            <mxPoint x="936.2561881188117" y="410" as="sourcePoint" />
            <mxPoint x="930.9499999999998" y="313" as="targetPoint" />
          </mxGeometry>
        </mxCell>
        <mxCell id="HUpHQ43C0Kg3qeBBqf7o-124" value="App利用テーブル" style="rounded=0;whiteSpace=wrap;html=1;fillColor=none;strokeColor=none;" vertex="1" parent="1">
          <mxGeometry x="90" y="53" width="149" height="20" as="geometry" />
        </mxCell>
        <mxCell id="HUpHQ43C0Kg3qeBBqf7o-128" value="User決済テーブル" style="rounded=0;whiteSpace=wrap;html=1;fillColor=none;strokeColor=none;" vertex="1" parent="1">
          <mxGeometry x="340" y="53" width="149" height="20" as="geometry" />
        </mxCell>
        <mxCell id="HUpHQ43C0Kg3qeBBqf7o-129" value="Feedbackテーブル" style="rounded=0;whiteSpace=wrap;html=1;fillColor=none;strokeColor=none;" vertex="1" parent="1">
          <mxGeometry x="710" y="53" width="149" height="20" as="geometry" />
        </mxCell>
        <mxCell id="HUpHQ43C0Kg3qeBBqf7o-130" value="採点者決済テーブル" style="rounded=0;whiteSpace=wrap;html=1;fillColor=none;strokeColor=none;" vertex="1" parent="1">
          <mxGeometry x="990" y="50" width="149" height="20" as="geometry" />
        </mxCell>
        <mxCell id="HUpHQ43C0Kg3qeBBqf7o-131" value="採点者マスタ" style="rounded=0;whiteSpace=wrap;html=1;fillColor=none;strokeColor=none;" vertex="1" parent="1">
          <mxGeometry x="730" y="390" width="149" height="20" as="geometry" />
        </mxCell>
        <mxCell id="HUpHQ43C0Kg3qeBBqf7o-132" value="設問マスタ" style="rounded=0;whiteSpace=wrap;html=1;fillColor=none;strokeColor=none;" vertex="1" parent="1">
          <mxGeometry x="520" y="390" width="149" height="20" as="geometry" />
        </mxCell>
        <mxCell id="HUpHQ43C0Kg3qeBBqf7o-133" value="アンケートテーブル" style="rounded=0;whiteSpace=wrap;html=1;fillColor=none;strokeColor=none;" vertex="1" parent="1">
          <mxGeometry x="297" y="390" width="149" height="20" as="geometry" />
        </mxCell>
        <mxCell id="HUpHQ43C0Kg3qeBBqf7o-134" value="User マスタ" style="rounded=0;whiteSpace=wrap;html=1;fillColor=none;strokeColor=none;" vertex="1" parent="1">
          <mxGeometry x="55" y="390" width="149" height="20" as="geometry" />
        </mxCell>
        <mxCell id="HUpHQ43C0Kg3qeBBqf7o-135" value="アンケート項目マスタ" style="rounded=0;whiteSpace=wrap;html=1;fillColor=none;strokeColor=none;" vertex="1" parent="1">
          <mxGeometry x="290" y="500" width="130" height="20" as="geometry" />
        </mxCell>
        <mxCell id="HUpHQ43C0Kg3qeBBqf7o-136" value="" style="endArrow=ERone;html=1;rounded=0;curved=1;startArrow=ERone;startFill=0;endFill=0;exitX=1;exitY=1;exitDx=0;exitDy=0;entryX=0.488;entryY=1.2;entryDx=0;entryDy=0;entryPerimeter=0;" edge="1" parent="1" source="HUpHQ43C0Kg3qeBBqf7o-134" target="HUpHQ43C0Kg3qeBBqf7o-97">
          <mxGeometry width="50" height="50" relative="1" as="geometry">
            <mxPoint x="204.5" y="410" as="sourcePoint" />
            <mxPoint x="204.5" y="253" as="targetPoint" />
          </mxGeometry>
        </mxCell>
        <mxCell id="HUpHQ43C0Kg3qeBBqf7o-137" value="" style="endArrow=ERone;html=1;rounded=0;startArrow=ERoneToMany;startFill=0;endFill=0;exitX=1;exitY=1;exitDx=0;exitDy=0;entryX=1;entryY=0.5;entryDx=0;entryDy=0;edgeStyle=elbowEdgeStyle;" edge="1" parent="1" source="HUpHQ43C0Kg3qeBBqf7o-133" target="HUpHQ43C0Kg3qeBBqf7o-97">
          <mxGeometry width="50" height="50" relative="1" as="geometry">
            <mxPoint x="291" y="351" as="sourcePoint" />
            <mxPoint x="290" y="260" as="targetPoint" />
            <Array as="points">
              <mxPoint x="446" y="350" />
            </Array>
          </mxGeometry>
        </mxCell>
        <mxCell id="HUpHQ43C0Kg3qeBBqf7o-139" value="" style="endArrow=ERone;html=1;rounded=0;startArrow=ERone;startFill=0;endFill=0;exitX=1;exitY=1;exitDx=0;exitDy=0;entryX=1;entryY=0.5;entryDx=0;entryDy=0;edgeStyle=elbowEdgeStyle;" edge="1" parent="1" source="HUpHQ43C0Kg3qeBBqf7o-132" target="HUpHQ43C0Kg3qeBBqf7o-58">
          <mxGeometry width="50" height="50" relative="1" as="geometry">
            <mxPoint x="214" y="420" as="sourcePoint" />
            <mxPoint x="213" y="329" as="targetPoint" />
            <Array as="points">
              <mxPoint x="670" y="320" />
            </Array>
          </mxGeometry>
        </mxCell>
        <mxCell id="HUpHQ43C0Kg3qeBBqf7o-140" value="" style="endArrow=ERone;html=1;rounded=0;curved=1;startArrow=ERone;startFill=0;endFill=0;exitX=0;exitY=0.083;exitDx=0;exitDy=0;exitPerimeter=0;entryX=1.006;entryY=0.063;entryDx=0;entryDy=0;entryPerimeter=0;" edge="1" parent="1" source="HUpHQ43C0Kg3qeBBqf7o-40" target="HUpHQ43C0Kg3qeBBqf7o-21">
          <mxGeometry width="50" height="50" relative="1" as="geometry">
            <mxPoint x="331" y="223" as="sourcePoint" />
            <mxPoint x="293" y="86" as="targetPoint" />
          </mxGeometry>
        </mxCell>
        <mxCell id="HUpHQ43C0Kg3qeBBqf7o-141" value="" style="endArrow=ERone;html=1;rounded=0;curved=1;startArrow=ERone;startFill=0;endFill=0;exitX=0;exitY=0.089;exitDx=0;exitDy=0;exitPerimeter=0;" edge="1" parent="1" source="HUpHQ43C0Kg3qeBBqf7o-49">
          <mxGeometry width="50" height="50" relative="1" as="geometry">
            <mxPoint x="770" y="100" as="sourcePoint" />
            <mxPoint x="550" y="90" as="targetPoint" />
          </mxGeometry>
        </mxCell>
        <mxCell id="HUpHQ43C0Kg3qeBBqf7o-142" value="" style="endArrow=ERone;html=1;rounded=0;curved=1;startArrow=ERone;startFill=0;endFill=0;exitX=0;exitY=0.089;exitDx=0;exitDy=0;exitPerimeter=0;" edge="1" parent="1">
          <mxGeometry width="50" height="50" relative="1" as="geometry">
            <mxPoint x="1060" y="90" as="sourcePoint" />
            <mxPoint x="950" y="91" as="targetPoint" />
          </mxGeometry>
        </mxCell>
      </root>
    </mxGraphModel>
  </diagram>
</mxfile>
